<?xml version="1.0" encoding="UTF-8" standalone="no" ?>
<!DOCTYPE svg PUBLIC "-//W3C//DTD SVG 1.1//EN" "http://www.w3.org/Graphics/SVG/1.1/DTD/svg11.dtd">
<svg xmlns="http://www.w3.org/2000/svg" xmlns:xlink="http://www.w3.org/1999/xlink" version="1.1" width="220" height="55" viewBox="0 0 220 55" xml:space="preserve">
<desc>Created with Fabric.js 3.6.3</desc>
<defs>
</defs>
<g transform="matrix(1 0 0 1 110.5 27.05)"  >
<path style="stroke: none; stroke-width: 1; stroke-dasharray: none; stroke-linecap: butt; stroke-dashoffset: 0; stroke-linejoin: miter; stroke-miterlimit: 4; fill: rgb(0,0,0); fill-rule: nonzero; opacity: 1;"  transform=" translate(-110, -27.5)" d="M 52.885 11 h 5.5 v 31.73 h -5.5 z m 15.438 0.695 c 0.708 0.746 1.062 1.65 1.062 2.711 c 0 1.047 -0.35 1.94 -1.052 2.678 c -0.7 0.74 -1.538 1.108 -2.514 1.108 c -1.002 0 -1.858 -0.376 -2.565 -1.129 c -0.708 -0.753 -1.062 -1.667 -1.062 -2.743 c 0 -1.033 0.35 -1.915 1.051 -2.646 c 0.701 -0.732 1.546 -1.097 2.535 -1.097 c 0.99 0 1.838 0.373 2.545 1.118 z m -5.285 8.19 h 5.5 V 42.73 h -5.5 z M 90.717 11 h 5.745 v 31.568 h -5.745 V 40.16 c -1.12 1.061 -2.245 1.825 -3.373 2.293 c -1.128 0.467 -2.35 0.7 -3.667 0.7 c -2.957 0 -5.514 -1.14 -7.671 -3.422 c -2.158 -2.281 -3.237 -5.118 -3.237 -8.509 c 0 -3.517 1.044 -6.399 3.132 -8.646 c 2.087 -2.246 4.623 -3.37 7.608 -3.37 c 1.373 0 2.662 0.258 3.866 0.774 c 1.205 0.517 2.32 1.292 3.342 2.324 z M 80.425 26.426 c -1.155 1.258 -1.733 2.872 -1.733 4.84 c 0 1.982 0.588 3.613 1.763 4.892 c 1.175 1.28 2.623 1.919 4.341 1.919 c 1.774 0 3.245 -0.63 4.413 -1.888 c 1.168 -1.257 1.753 -2.906 1.753 -4.945 c 0 -1.996 -0.585 -3.612 -1.753 -4.85 c -1.168 -1.237 -2.646 -1.856 -4.434 -1.856 c -1.746 0 -3.196 0.63 -4.35 1.888 z m 38.638 -6.374 h 5.745 v 22.935 h -5.745 v -2.425 c -1.12 1.069 -2.245 1.838 -3.372 2.309 c -1.129 0.47 -2.35 0.706 -3.668 0.706 c -2.956 0 -5.513 -1.149 -7.671 -3.446 c -2.158 -2.298 -3.237 -5.155 -3.237 -8.57 c 0 -3.541 1.044 -6.443 3.132 -8.705 c 2.088 -2.263 4.623 -3.394 7.608 -3.394 a 9.66 9.66 0 0 1 3.867 0.78 c 1.204 0.52 2.318 1.3 3.341 2.34 z m -10.292 6.374 c -1.155 1.258 -1.733 2.872 -1.733 4.84 c 0 1.982 0.588 3.613 1.763 4.892 c 1.176 1.28 2.623 1.919 4.341 1.919 c 1.774 0 3.245 -0.63 4.413 -1.888 c 1.168 -1.257 1.753 -2.906 1.753 -4.945 c 0 -1.996 -0.585 -3.612 -1.753 -4.85 c -1.168 -1.237 -2.646 -1.856 -4.433 -1.856 c -1.746 0 -3.196 0.63 -4.351 1.888 z m 20.267 -6.38 h 4.916 v 2.856 c 0.532 -1.126 1.24 -1.98 2.122 -2.565 a 5.148 5.148 0 0 1 2.9 -0.875 c 0.742 0 1.52 0.194 2.332 0.583 l -1.787 4.9 c -0.672 -0.333 -1.225 -0.5 -1.659 -0.5 c -0.882 0 -1.628 0.542 -2.237 1.626 c -0.61 1.084 -0.914 3.211 -0.914 6.38 l 0.02 1.105 v 9.175 h -5.693 z m 37.634 13.139 h -18.195 c 0.263 1.63 0.965 2.926 2.106 3.889 c 1.141 0.963 2.597 1.444 4.367 1.444 c 2.116 0 3.935 -0.752 5.457 -2.256 l 4.77 2.277 c -1.189 1.715 -2.613 2.983 -4.273 3.805 c -1.66 0.822 -3.63 1.233 -5.913 1.233 c -3.54 0 -6.424 -1.135 -8.65 -3.404 c -2.228 -2.27 -3.341 -5.112 -3.341 -8.527 c 0 -3.5 1.11 -6.405 3.33 -8.717 c 2.22 -2.311 5.003 -3.467 8.35 -3.467 c 3.555 0 6.445 1.156 8.672 3.467 c 2.227 2.312 3.34 5.365 3.34 9.16 z m -5.48 -4.839 c -0.373 -1.251 -1.11 -2.27 -2.21 -3.054 c -1.101 -0.784 -2.378 -1.177 -3.83 -1.177 c -1.579 0 -2.963 0.441 -4.153 1.321 c -0.747 0.55 -1.44 1.52 -2.076 2.91 z m 10.923 -16.923 h 5.624 v 8.431 h 3.338 v 4.941 h -3.338 v 17.936 h -5.624 V 24.795 h -2.884 v -4.94 h 2.884 z m 13.115 0 h 5.625 v 8.431 h 3.337 v 4.941 h -3.337 v 17.936 h -5.625 V 24.795 h -2.884 v -4.94 h 2.884 z m 28.8 9.662 c 1.876 1.082 3.34 2.55 4.392 4.405 A 11.983 11.983 0 0 1 220 31.498 c 0 2.165 -0.53 4.188 -1.589 6.071 c -1.059 1.884 -2.502 3.356 -4.33 4.416 c -1.826 1.062 -3.84 1.592 -6.041 1.592 c -3.24 0 -6.005 -1.17 -8.296 -3.51 c -2.29 -2.34 -3.436 -5.182 -3.436 -8.527 c 0 -3.583 1.294 -6.57 3.883 -8.959 c 2.27 -2.08 4.88 -3.12 7.828 -3.12 c 2.132 0 4.135 0.542 6.01 1.624 z m -10.474 5.71 c -1.166 1.222 -1.748 2.787 -1.748 4.693 c 0 1.961 0.576 3.55 1.728 4.766 c 1.15 1.215 2.61 1.823 4.375 1.823 c 1.766 0 3.235 -0.615 4.407 -1.844 c 1.173 -1.23 1.759 -2.81 1.759 -4.745 c 0 -1.934 -0.576 -3.505 -1.728 -4.714 c -1.152 -1.208 -2.624 -1.812 -4.417 -1.812 c -1.752 0 -3.21 0.61 -4.376 1.833 z m -195.94 0.916 L 0.64 34.692 l -0.043 -0.241 a 38.343 38.343 0 0 1 0 -13.478 l 0.043 -0.242 z M 10.637 0.062 l 0.255 0.253 h -0.001 z m 0.3 0.298 v 0.001 l -0.046 -0.046 a 39.004 39.004 0 0 0 -5.337 6.757 L 5.5 7.16 l 20.41 20.337 L 5.5 47.835 l 0.054 0.088 a 38.982 38.982 0 0 0 5.565 6.985 l 0.092 0.092 l 20.852 -20.78 l 0.09 -0.089 l -0.088 -0.092 a 9.37 9.37 0 0 1 -2.649 -6.54 c 0 -2.451 0.941 -4.775 2.65 -6.543 l 0.088 -0.092 L 11.304 0.087 L 11.216 0 l -0.097 0.088 c -0.076 0.075 -0.151 0.15 -0.226 0.227 z m 28.197 19.948 c 4.082 0 7.403 3.322 7.403 7.404 c 0 1.978 -0.77 3.837 -2.168 5.235 a 7.355 7.355 0 0 1 -5.234 2.168 c -4.084 0 -7.405 -3.321 -7.405 -7.403 c 0 -1.978 0.77 -3.837 2.168 -5.236 a 7.355 7.355 0 0 1 5.236 -2.168 z M 23.269 27.5 L 4.82 46.115 l -0.082 -0.153 a 38.96 38.96 0 0 1 -3.45 -8.985 l -0.018 -0.072 l 9.322 -9.405 l -9.322 -9.405 l 0.018 -0.072 a 38.957 38.957 0 0 1 3.45 -8.984 l 0.082 -0.154 z" stroke-linecap="round" />
</g>
</svg>